<svg width="451.5125px" height="122px" xmlns="http://www.w3.org/2000/svg" viewBox="24.243750000000006 14 451.5125 122" style="background:#444" preserveAspectRatio="xMidYMid"><defs><filter id="editing-crystal" x="-100%" y="-100%" width="300%" height="300%"><feMorphology operator="dilate" radius="2" in="SourceGraphic" result="border"></feMorphology><feFlood flood-color="#fff" result="black"></feFlood><feMorphology operator="dilate" radius="2" in="SourceGraphic" result="erode"></feMorphology><feGaussianBlur in="erode" stdDeviation="4" result="blur"></feGaussianBlur><feOffset in="blur" dx="2" dy="2" result="offset"></feOffset><feComposite operator="atop" in="offset" in2="black" result="merge"></feComposite><feComposite operator="in" in="merge" in2="SourceGraphic" result="inner-shadow"></feComposite><feGaussianBlur in="SourceGraphic" stdDeviation="2.5" result="shadow1"></feGaussianBlur><feOffset in="shadow1" dx="0" dy="5" result="shadow"></feOffset><feSpecularLighting in="SourceGraphic" result="specular" surfaceScale="1.5" specularConstant="100" specularExponent="10" lighting-color="#fff"><fePointLight x="250" y="-300" z="-400"></fePointLight></feSpecularLighting><feGaussianBlur in="specular" stdDeviation="1" result="specular2"></feGaussianBlur><feComposite operator="in" in="specular2" in2="SourceAlpha" result="specular3"></feComposite><feMerge result="merge"><feMergeNode in="border"></feMergeNode><feMergeNode in="inner-shadow"></feMergeNode><feMergeNode in="specular3"></feMergeNode></feMerge><feComponentTransfer in="merge" result="final"><feFuncA type="linear" slope="0.9" intercept="0"></feFuncA></feComponentTransfer><feMerge><feMergeNode in="shadow"></feMergeNode><feMergeNode in="final"></feMergeNode></feMerge></filter></defs><g filter="url(#editing-crystal)"><g transform="translate(91.89380431175232, 99)"><path d="M47.17 1.28L47.17 1.28L47.17 1.28Q39.42 1.28 39.42-4.74L39.42-4.74L39.42-4.74Q39.42-7.36 40.54-12.45L40.54-12.45L40.54-12.45Q41.66-17.54 42.05-19.58L42.05-19.58L42.05-19.58Q42.94-24.26 42.94-25.73L42.94-25.73L42.94-25.73Q42.94-28.99 40.51-28.99L40.51-28.99L40.51-28.99Q38.91-28.99 37.38-26.78L37.38-26.78L37.38-26.78Q35.84-24.58 35.14-20.16L35.14-20.16L31.17 0L18.69 1.28L22.14-16.13L22.14-16.13Q22.72-19.01 23.23-22.27L23.23-22.27L23.23-22.27Q23.74-25.54 23.74-26.05L23.74-26.05L23.74-26.05Q23.74-28.99 21.57-28.99L21.57-28.99L21.57-28.99Q20.10-28.99 18.50-26.82L18.50-26.82L18.50-26.82Q16.90-24.64 16-20.16L16-20.16L12.10 0L-0.51 1.28L6.21-32.64L16.64-33.92L15.55-27.46L15.55-27.46Q17.22-30.91 20.29-32.42L20.29-32.42L20.29-32.42Q23.36-33.92 28.16-33.92L28.16-33.92L28.16-33.92Q30.91-33.92 32.70-32.58L32.70-32.58L32.70-32.58Q34.50-31.23 35.07-29.06L35.07-29.06L35.07-29.06Q36.16-31.30 38.94-32.61L38.94-32.61L38.94-32.61Q41.73-33.92 45.15-33.92L45.15-33.92L45.15-33.92Q48.58-33.92 50.27-33.18L50.27-33.18L50.27-33.18Q51.97-32.45 52.99-31.23L52.99-31.23L52.99-31.23Q54.72-28.99 54.72-24.90L54.72-24.90L54.72-24.90Q54.72-20.86 52.99-12.48L52.99-12.48L52.99-12.48Q52.10-8.38 52.10-6.88L52.10-6.88L52.10-6.88Q52.10-5.38 52.96-4.48L52.96-4.48L52.96-4.48Q53.82-3.58 55.10-3.46L55.10-3.46L55.10-3.46Q54.46-1.28 52.26 0L52.26 0L52.26 0Q50.05 1.28 47.17 1.28ZM73.98 1.28L73.98 1.28L73.98 1.28Q59.90 1.28 59.90-11.97L59.90-11.97L59.90-11.97Q59.90-21.38 65.09-27.46L65.09-27.46L65.09-27.46Q70.59-33.92 80.13-33.92L80.13-33.92L80.13-33.92Q87.04-33.92 90.56-30.72L90.56-30.72L90.56-30.72Q94.08-27.52 94.08-20.80L94.08-20.80L94.08-20.80Q94.08-10.56 88.58-4.61L88.58-4.61L88.58-4.61Q83.20 1.28 73.98 1.28ZM75.65-26.56L75.65-26.56L75.65-26.56Q74.88-24.83 74.27-22.24L74.27-22.24L74.27-22.24Q73.66-19.65 72.90-15.55L72.90-15.55L72.90-15.55Q72.13-11.46 72.13-6.40L72.13-6.40L72.13-6.40Q72.13-4.74 72.67-3.65L72.67-3.65L72.67-3.65Q73.22-2.56 74.69-2.56L74.69-2.56L74.69-2.56Q76.16-2.56 77.09-3.26L77.09-3.26L77.09-3.26Q78.02-3.97 78.72-5.63L78.72-5.63L78.72-5.63Q80-8.58 81.02-14.05L81.02-14.05L81.02-14.05Q82.05-19.52 82.14-21.89L82.14-21.89L82.14-21.89Q82.24-24.26 82.24-26.02L82.24-26.02L82.24-26.02Q82.24-27.78 81.73-28.93L81.73-28.93L81.73-28.93Q81.22-30.08 79.78-30.08L79.78-30.08L79.78-30.08Q78.34-30.08 77.38-29.18L77.38-29.18L77.38-29.18Q76.42-28.29 75.65-26.56ZM121.09-31.55L121.09-31.55L121.09-31.55Q123.20-33.92 126.85-33.92L126.85-33.92L126.85-33.92Q129.09-33.92 130.82-32.70L130.82-32.70L130.82-32.70Q132.54-31.49 132.54-29.22L132.54-29.22L132.54-29.22Q132.54-26.94 131.84-24.51L131.84-24.51L131.84-24.51Q131.14-22.08 130.05-19.58L130.05-19.58L130.05-19.58Q127.87-14.72 124.86-10.69L124.86-10.69L124.86-10.69Q120.64-4.86 116.58-1.79L116.58-1.79L116.58-1.79Q112.51 1.28 108.10 1.28L108.10 1.28L108.10 1.28Q104.51 1.28 102.34 0.45L102.34 0.45L102.34 0.45Q101.95-12.99 101.47-17.79L101.47-17.79L101.47-17.79Q100.99-22.59 100.61-25.22L100.61-25.22L100.61-25.22Q99.97-30.34 98.05-31.55L98.05-31.55L98.05-31.55Q99.52-32.83 100.96-33.38L100.96-33.38L100.96-33.38Q102.40-33.92 105.38-33.92L105.38-33.92L105.38-33.92Q108.35-33.92 110.46-31.58L110.46-31.58L110.46-31.58Q112.58-29.25 112.99-25.12L112.99-25.12L112.99-25.12Q113.41-20.99 113.41-16L113.41-16L113.41-16Q113.41-11.01 113.02-4.99L113.02-4.99L113.02-4.99Q115.01-6.40 117.12-10.69L117.12-10.69L117.12-10.69Q120-16.64 121.02-23.81L121.02-23.81L121.02-23.81Q121.34-25.98 121.34-28.29L121.34-28.29L121.34-28.29Q121.34-30.59 121.09-31.55ZM149.63-3.52L149.63-3.52L149.63-3.52Q147.65 1.28 141.31 1.28L141.31 1.28L141.31 1.28Q138.05 1.28 136-0.96L136-0.96L136-0.96Q134.27-2.94 134.27-4.93L134.27-4.93L134.27-4.93Q134.27-10.11 136.64-20.22L136.64-20.22L139.01-32.64L152-33.92L148.10-13.70L148.10-13.70Q147.01-8.96 147.01-7.30L147.01-7.30L147.01-7.30Q147.01-3.65 149.63-3.52ZM140.16-41.54L140.16-41.54L140.16-41.54Q140.16-44.03 142.24-45.38L142.24-45.38L142.24-45.38Q144.32-46.72 147.33-46.72L147.33-46.72L147.33-46.72Q150.34-46.72 152.16-45.38L152.16-45.38L152.16-45.38Q153.98-44.03 153.98-41.54L153.98-41.54L153.98-41.54Q153.98-39.04 151.97-37.76L151.97-37.76L151.97-37.76Q149.95-36.48 146.94-36.48L146.94-36.48L146.94-36.48Q143.94-36.48 142.05-37.76L142.05-37.76L142.05-37.76Q140.16-39.04 140.16-41.54ZM180.99-10.82L180.99-10.82L180.99-10.82Q182.59-9.73 182.59-7.33L182.59-7.33L182.59-7.33Q182.59-4.93 181.38-3.39L181.38-3.39L181.38-3.39Q180.16-1.86 178.18-0.83L178.18-0.83L178.18-0.83Q174.08 1.28 169.66 1.28L169.66 1.28L169.66 1.28Q165.25 1.28 162.66 0.32L162.66 0.32L162.66 0.32Q160.06-0.64 158.34-2.43L158.34-2.43L158.34-2.43Q154.94-5.82 154.94-12.03L154.94-12.03L154.94-12.03Q154.94-21.70 160.19-27.58L160.19-27.58L160.19-27.58Q165.82-33.92 175.62-33.92L175.62-33.92L175.62-33.92Q181.70-33.92 184.70-31.36L184.70-31.36L184.70-31.36Q186.94-29.44 186.94-26.30L186.94-26.30L186.94-26.30Q186.94-15.04 167.49-15.04L167.49-15.04L167.49-15.04Q167.23-13.38 167.23-11.97L167.23-11.97L167.23-11.97Q167.23-9.02 168.54-7.90L168.54-7.90L168.54-7.90Q169.86-6.78 172.29-6.78L172.29-6.78L172.29-6.78Q174.72-6.78 177.31-7.90L177.31-7.90L177.31-7.90Q179.90-9.02 180.99-10.82ZM167.94-17.79L167.94-17.79L167.94-17.79Q172.48-17.79 175.10-20.61L175.10-20.61L175.10-20.61Q177.73-23.30 177.73-27.58L177.73-27.58L177.73-27.58Q177.73-29.06 177.18-29.86L177.18-29.86L177.18-29.86Q176.64-30.66 175.55-30.66L175.55-30.66L175.55-30.66Q174.46-30.66 173.54-30.24L173.54-30.24L173.54-30.24Q172.61-29.82 171.65-28.42L171.65-28.42L171.65-28.42Q169.28-25.22 167.94-17.79ZM217.60-3.52L217.60-3.52L217.60-3.52Q215.62 1.28 209.28 1.28L209.28 1.28L209.28 1.28Q206.08 1.28 204.03-0.96L204.03-0.96L204.03-0.96Q202.37-2.82 202.37-4.93L202.37-4.93L202.37-4.93Q202.37-9.73 204.61-20.22L204.61-20.22L209.28-44.80L222.27-46.08L216.06-13.70L216.06-13.70Q214.98-8.96 214.98-7.30L214.98-7.30L214.98-7.30Q214.98-3.65 217.60-3.52ZM238.40-3.52L238.40-3.52L238.40-3.52Q236.42 1.28 230.08 1.28L230.08 1.28L230.08 1.28Q226.82 1.28 224.77-0.96L224.77-0.96L224.77-0.96Q223.04-2.94 223.04-4.93L223.04-4.93L223.04-4.93Q223.04-10.11 225.41-20.22L225.41-20.22L227.78-32.64L240.77-33.92L236.86-13.70L236.86-13.70Q235.78-8.96 235.78-7.30L235.78-7.30L235.78-7.30Q235.78-3.65 238.40-3.52ZM228.93-41.54L228.93-41.54L228.93-41.54Q228.93-44.03 231.01-45.38L231.01-45.38L231.01-45.38Q233.09-46.72 236.10-46.72L236.10-46.72L236.10-46.72Q239.10-46.72 240.93-45.38L240.93-45.38L240.93-45.38Q242.75-44.03 242.75-41.54L242.75-41.54L242.75-41.54Q242.75-39.04 240.74-37.76L240.74-37.76L240.74-37.76Q238.72-36.48 235.71-36.48L235.71-36.48L235.71-36.48Q232.70-36.48 230.82-37.76L230.82-37.76L230.82-37.76Q228.93-39.04 228.93-41.54ZM270.91 1.28L270.91 1.28L270.91 1.28Q263.17 1.28 263.17-4.74L263.17-4.74L263.17-4.74Q263.23-6.40 263.74-9.22L263.74-9.22L264.90-15.10L264.90-15.10Q266.62-23.42 266.62-25.28L266.62-25.28L266.62-25.28Q266.62-28.99 264.45-28.99L264.45-28.99L264.45-28.99Q260.80-28.99 258.88-19.46L258.88-19.46L255.10 0L242.24 1.28L248.90-32.70L259.39-33.92L258.37-27.65L258.37-27.65Q261.38-33.92 270.59-33.92L270.59-33.92L270.59-33.92Q275.07-33.92 276.96-32.03L276.96-32.03L276.96-32.03Q278.85-30.14 278.85-25.92L278.85-25.92L278.85-25.92Q278.85-21.95 276.80-12.67L276.80-12.67L276.80-12.67Q275.84-8.51 275.84-6.94L275.84-6.94L275.84-6.94Q275.84-5.38 276.70-4.48L276.70-4.48L276.70-4.48Q277.57-3.58 278.85-3.46L278.85-3.46L278.85-3.46Q278.21-1.28 276 0L276 0L276 0Q273.79 1.28 270.91 1.28ZM309.89-10.82L309.89-10.82L309.89-10.82Q311.49-9.73 311.49-7.33L311.49-7.33L311.49-7.33Q311.49-4.93 310.27-3.39L310.27-3.39L310.27-3.39Q309.06-1.86 307.07-0.83L307.07-0.83L307.07-0.83Q302.98 1.28 298.56 1.28L298.56 1.28L298.56 1.28Q294.14 1.28 291.55 0.32L291.55 0.32L291.55 0.32Q288.96-0.64 287.23-2.43L287.23-2.43L287.23-2.43Q283.84-5.82 283.84-12.03L283.84-12.03L283.84-12.03Q283.84-21.70 289.09-27.58L289.09-27.58L289.09-27.58Q294.72-33.92 304.51-33.92L304.51-33.92L304.51-33.92Q310.59-33.92 313.60-31.36L313.60-31.36L313.60-31.36Q315.84-29.44 315.84-26.30L315.84-26.30L315.84-26.30Q315.84-15.04 296.38-15.04L296.38-15.04L296.38-15.04Q296.13-13.38 296.13-11.97L296.13-11.97L296.13-11.97Q296.13-9.02 297.44-7.90L297.44-7.90L297.44-7.90Q298.75-6.78 301.18-6.78L301.18-6.78L301.18-6.78Q303.62-6.78 306.21-7.90L306.21-7.90L306.21-7.90Q308.80-9.02 309.89-10.82ZM296.83-17.79L296.83-17.79L296.83-17.79Q301.38-17.79 304-20.61L304-20.61L304-20.61Q306.62-23.30 306.62-27.58L306.62-27.58L306.62-27.58Q306.62-29.06 306.08-29.86L306.08-29.86L306.08-29.86Q305.54-30.66 304.45-30.66L304.45-30.66L304.45-30.66Q303.36-30.66 302.43-30.24L302.43-30.24L302.43-30.24Q301.50-29.82 300.54-28.42L300.54-28.42L300.54-28.42Q298.18-25.22 296.83-17.79Z" fill="#000000" stroke="#88e0eb" stroke-width="1.5"></path></g></g><style>text {
  font-size: 64px;
  font-family: Arial Black;
  dominant-baseline: central;
  text-anchor: middle;
}</style></svg>